:FULLY-SPECIFIED
:FORCE-ALL-JOINTS-BE-3DOF
:DEGREES
611
root 5.73299 16.668 -3.81998 -5.84015 48.8596 -13.6914
lfemur -17.7411 24.4207 -22.7149
ltibia 40.3578 0 0
lfoot -34.3004 25.0873 0
ltoes 22.2249 0 0
rfemur -53.4787 -17.4385 25.8711
rtibia 66.2519 0 0
rfoot 9.56196 29.1071 0
rtoes -6.08495 0 0
lowerback 3.72051 -3.42845 -4.28519
upperback 0.0235624 -4.71029 1.28926
thorax -1.60292 -2.30958 3.93637
lowerneck -8.60564 -9.05186 -0.268236
upperneck 15.0175 -12.8255 3.61832
head 6.24531 -5.93971 0.160503
lclavicle -1.29211e-015 -8.38789e-015 0
lhumerus -23.2681 -42.0718 94.3278
lradius 57.6398 0 0
lwrist 20.3386 0 0
lhand -11.2313 -0.42568 0
lfingers 7.12502 0 0
lthumb 14.7967 29.006 0
rclavicle -1.29211e-015 -8.38789e-015 0
rhumerus 21.7804 3.22114 -72.1482
rradius 115.961 0 0
rwrist -58.4689 0 0
rhand -28.288 -24.1829 0
rfingers 7.12502 0 0
rthumb -1.66402 -774.156 0
612
root 5.68723 16.6955 -3.82754 -2.3516 48.7035 -10.2689
lfemur -17.5809 24.8698 -22.8534
ltibia 39.7923 0 0
lfoot -34.22 25.7595 0
ltoes 22.8222 0 0
rfemur -53.6485 -17.7684 26.3852
rtibia 66.7264 0 0
rfoot 9.66705 29.5912 0
rtoes -5.46184 0 0
lowerback 3.59875 -3.48201 -4.35643
upperback -0.0635888 -4.79166 1.21869
thorax -1.61751 -2.35112 3.90515
lowerneck -8.72823 -8.93726 -0.178562
upperneck 15.1468 -12.6821 3.55988
head 6.28824 -5.86376 0.130323
lclavicle -1.3915e-015 -9.7599e-015 0
lhumerus -22.809 -42.7569 94.1983
lradius 57.732 0 0
lwrist 20.2064 0 0
lhand -10.9393 -0.319508 0
lfingers 7.12502 0 0
lthumb 15.0785 29.1011 0
rclavicle -1.3915e-015 -9.7599e-015 0
rhumerus 21.8078 2.93317 -72.0119
rradius 115.583 0 0
rwrist -58.7592 0 0
rhand -28.3025 -24.2329 0
rfingers 7.12502 0 0
rthumb -1.67805 -774.206 0
613
root 5.64146 16.7229 -3.83511 1.13695 48.5475 -6.8464
lfemur -17.4206 25.319 -22.9919
ltibia 39.2267 0 0
lfoot -34.1396 26.4317 0
ltoes 23.4196 0 0
rfemur -53.8182 -18.0982 26.8992
rtibia 67.2008 0 0
rfoot 9.77215 30.0753 0
rtoes -4.83872 0 0
lowerback 3.47698 -3.53558 -4.42766
upperback -0.15074 -4.87304 1.14812
thorax -1.63209 -2.39265 3.87392
lowerneck -8.85081 -8.82267 -0.0888888
upperneck 15.276 -12.5386 3.50145
head 6.33117 -5.78781 0.100142
lclavicle -1.49089e-015 -1.11319e-014 0
lhumerus -22.35 -43.4421 94.0688
lradius 57.8242 0 0
lwrist 20.0741 0 0
lhand -10.6473 -0.213335 0
lfingers 7.12502 0 0
lthumb 15.3602 29.1961 0
rclavicle -1.49089e-015 -1.11319e-014 0
rhumerus 21.8352 2.64521 -71.8757
rradius 115.206 0 0
rwrist -59.0494 0 0
rhand -28.317 -24.2829 0
rfingers 7.12502 0 0
rthumb -1.69207 -774.256 0
614
root 5.63826 16.7072 -3.78041 1.45173 47.4932 -6.65764
lfemur -17.3509 25.3405 -23.1452
ltibia 39.3156 0 0
lfoot -34.1699 26.2526 0
ltoes 22.9524 0 0
rfemur -53.8996 -18.2882 27.0923
rtibia 67.2603 0 0
rfoot 9.21649 29.2226 0
rtoes -4.68445 0 0
lowerback 3.39835 -3.58111 -4.43997
upperback -0.179752 -4.93106 1.12472
thorax -1.61416 -2.42164 3.8512
lowerneck -8.8785 -8.75696 -0.096277
upperneck 14.9904 -12.4387 3.5257
head 6.25032 -5.7445 0.121967
lclavicle -1.15763e-015 -1.05706e-014 0
lhumerus -22.5272 -44.0375 94.5109
lradius 58.2277 0 0
lwrist 20.1835 0 0
lhand -10.5385 -0.160019 0
lfingers 7.12502 0 0
lthumb 15.4648 29.2397 0
rclavicle -1.15763e-015 -1.05706e-014 0
rhumerus 20.3731 2.34654 -71.6957
rradius 114.093 0 0
rwrist -58.2092 0 0
rhand -28.3168 -24.7465 0
rfingers 7.12502 0 0
rthumb -1.69189 -774.72 0
615
root 5.63506 16.6915 -3.72571 1.76652 46.4389 -6.46889
lfemur -17.2812 25.3621 -23.2985
ltibia 39.4045 0 0
lfoot -34.2001 26.0735 0
ltoes 22.4852 0 0
rfemur -53.9809 -18.4781 27.2854
rtibia 67.3198 0 0
rfoot 8.66084 28.3699 0
rtoes -4.53018 0 0
lowerback 3.31973 -3.62663 -4.45228
upperback -0.208764 -4.98909 1.10131
thorax -1.59624 -2.45062 3.82848
lowerneck -8.90619 -8.69125 -0.103665
upperneck 14.7049 -12.3387 3.54995
head 6.16947 -5.70119 0.143793
lclavicle -8.24377e-016 -1.00094e-014 0
lhumerus -22.7044 -44.6329 94.953
lradius 58.6313 0 0
lwrist 20.2929 0 0
lhand -10.4298 -0.106703 0
lfingers 7.12502 0 0
lthumb 15.5695 29.2834 0
rclavicle -8.24377e-016 -1.00094e-014 0
rhumerus 18.911 2.04786 -71.5156
rradius 112.979 0 0
rwrist -57.3689 0 0
rhand -28.3166 -25.2102 0
rfingers 7.12502 0 0
rthumb -1.6917 -775.183 0
616
root 5.63186 16.6758 -3.67101 2.0813 45.3846 -6.28013
lfemur -17.2116 25.3836 -23.4518
ltibia 39.4934 0 0
lfoot -34.2304 25.8945 0
ltoes 22.018 0 0
rfemur -54.0623 -18.6681 27.4784
rtibia 67.3793 0 0
rfoot 8.10518 27.5172 0
rtoes -4.37591 0 0
lowerback 3.2411 -3.67216 -4.46459
upperback -0.237776 -5.04711 1.07791
thorax -1.57831 -2.47961 3.80577
lowerneck -8.93389 -8.62554 -0.111053
upperneck 14.4193 -12.2388 3.57419
head 6.08861 -5.65788 0.165618
lclavicle -4.9112e-016 -9.44808e-015 0
lhumerus -22.8816 -45.2283 95.3951
lradius 59.0348 0 0
lwrist 20.4024 0 0
lhand -10.321 -0.0533871 0
lfingers 7.12502 0 0
lthumb 15.6741 29.327 0
rclavicle -4.9112e-016 -9.44808e-015 0
rhumerus 17.4488 1.74919 -71.3356
rradius 111.866 0 0
rwrist -56.5287 0 0
rhand -28.3164 -25.6738 0
rfingers 7.12502 0 0
rthumb -1.69152 -775.647 0
617
root 5.62866 16.6601 -3.61631 2.39608 44.3303 -6.09137
lfemur -17.1419 25.4052 -23.6051
ltibia 39.5823 0 0
lfoot -34.2607 25.7154 0
ltoes 21.5508 0 0
rfemur -54.1436 -18.8581 27.6715
rtibia 67.4387 0 0
rfoot 7.54953 26.6645 0
rtoes -4.22163 0 0
lowerback 3.16248 -3.71768 -4.4769
upperback -0.266788 -5.10513 1.0545
thorax -1.56039 -2.5086 3.78305
lowerneck -8.96158 -8.55983 -0.118441
upperneck 14.1337 -12.1389 3.59844
head 6.00776 -5.61458 0.187443
lclavicle -1.57863e-016 -8.8868e-015 0
lhumerus -23.0588 -45.8237 95.8372
lradius 59.4384 0 0
lwrist 20.5118 0 0
lhand -10.2123 -7.10784e-005 0
lfingers 7.12502 0 0
lthumb 15.7788 29.3707 0
rclavicle -1.57863e-016 -8.8868e-015 0
rhumerus 15.9867 1.45052 -71.1555
rradius 110.753 0 0
rwrist -55.6884 0 0
rhand -28.3162 -26.1374 0
rfingers 7.12502 0 0
rthumb -1.69134 -776.111 0
618
root 5.62546 16.6444 -3.56161 2.71087 43.276 -5.90261
lfemur -17.0722 25.4267 -23.7584
ltibia 39.6712 0 0
lfoot -34.2909 25.5363 0
ltoes 21.0836 0 0
rfemur -54.225 -19.048 27.8646
rtibia 67.4982 0 0
rfoot 6.99387 25.8118 0
rtoes -4.06736 0 0
lowerback 3.08385 -3.76321 -4.48921
upperback -0.2958 -5.16316 1.0311
thorax -1.54246 -2.53759 3.76033
lowerneck -8.98927 -8.49412 -0.12583
upperneck 13.8482 -12.0389 3.62269
head 5.92691 -5.57127 0.209268
lclavicle 1.75393e-016 -8.32553e-015 0
lhumerus -23.236 -46.4191 96.2793
lradius 59.8419 0 0
lwrist 20.6212 0 0
lhand -10.1035 0.0532449 0
lfingers 7.12502 0 0
lthumb 15.8834 29.4143 0
rclavicle 1.75393e-016 -8.32553e-015 0
rhumerus 14.5246 1.15185 -70.9755
rradius 109.639 0 0
rwrist -54.8482 0 0
rhand -28.3161 -26.601 0
rfingers 7.12502 0 0
rthumb -1.69116 -776.574 0
619
root 5.62225 16.6288 -3.50691 3.02565 42.2217 -5.71386
lfemur -17.0025 25.4482 -23.9117
ltibia 39.7601 0 0
lfoot -34.3212 25.3572 0
ltoes 20.6165 0 0
rfemur -54.3063 -19.238 28.0577
rtibia 67.5577 0 0
rfoot 6.43821 24.9591 0
rtoes -3.91309 0 0
lowerback 3.00523 -3.80873 -4.50152
upperback -0.324812 -5.22118 1.00769
thorax -1.52454 -2.56657 3.73761
lowerneck -9.01696 -8.4284 -0.133218
upperneck 13.5626 -11.939 3.64694
head 5.84606 -5.52796 0.231094
lclavicle 5.0865e-016 -7.76425e-015 0
lhumerus -23.4132 -47.0145 96.7214
lradius 60.2454 0 0
lwrist 20.7306 0 0
lhand -9.99473 0.106561 0
lfingers 7.12502 0 0
lthumb 15.988 29.458 0
rclavicle 5.0865e-016 -7.76425e-015 0
rhumerus 13.0625 0.853174 -70.7954
rradius 108.526 0 0
rwrist -54.008 0 0
rhand -28.3159 -27.0647 0
rfingers 7.12502 0 0
rthumb -1.69097 -777.038 0
